<mxfile host="app.diagrams.net" agent="Mozilla/5.0 (Windows NT 10.0; Win64; x64) AppleWebKit/537.36 (KHTML, like Gecko) Chrome/137.0.0.0 Safari/537.36 Edg/137.0.0.0" version="27.1.4">
  <diagram name="PÃ¡gina-1" id="xY44_kegHmr3DNZRBy6s">
    <mxGraphModel dx="994" dy="612" grid="1" gridSize="10" guides="1" tooltips="1" connect="1" arrows="1" fold="1" page="1" pageScale="1" pageWidth="827" pageHeight="1169" math="0" shadow="0" adaptiveColors="none">
      <root>
        <mxCell id="0" />
        <mxCell id="1" parent="0" />
        <mxCell id="eo_KO0FBfdUoMX1b3jGh-1" value="" style="fontStyle=1;align=center;verticalAlign=middle;childLayout=stackLayout;horizontal=1;horizontalStack=0;resizeParent=1;resizeParentMax=0;resizeLast=0;marginBottom=0;rounded=1;absoluteArcSize=1;arcSize=22;" vertex="1" parent="1">
          <mxGeometry x="350" y="100" width="200" height="100" as="geometry" />
        </mxCell>
        <mxCell id="eo_KO0FBfdUoMX1b3jGh-2" value="State2" style="html=1;align=center;spacing=0;verticalAlign=middle;strokeColor=none;fillColor=none;whiteSpace=wrap;" vertex="1" parent="eo_KO0FBfdUoMX1b3jGh-1">
          <mxGeometry width="200" height="20" as="geometry" />
        </mxCell>
        <mxCell id="eo_KO0FBfdUoMX1b3jGh-3" value="" style="line;strokeWidth=0.25;fillColor=none;align=left;verticalAlign=middle;spacingTop=-1;spacingLeft=3;spacingRight=3;rotatable=0;labelPosition=right;points=[];portConstraint=eastwest;" vertex="1" parent="eo_KO0FBfdUoMX1b3jGh-1">
          <mxGeometry y="20" width="200" height="8" as="geometry" />
        </mxCell>
        <mxCell id="eo_KO0FBfdUoMX1b3jGh-4" value="" style="html=1;align=left;spacing=0;spacingLeft=10;verticalAlign=middle;strokeColor=none;fillColor=none;whiteSpace=wrap;" vertex="1" parent="eo_KO0FBfdUoMX1b3jGh-1">
          <mxGeometry y="28" width="200" height="10" as="geometry" />
        </mxCell>
        <mxCell id="eo_KO0FBfdUoMX1b3jGh-5" value="entry / entryActivity" style="html=1;align=left;spacing=0;spacingLeft=10;verticalAlign=middle;strokeColor=none;fillColor=none;whiteSpace=wrap;" vertex="1" parent="eo_KO0FBfdUoMX1b3jGh-1">
          <mxGeometry y="38" width="200" height="14" as="geometry" />
        </mxCell>
        <mxCell id="eo_KO0FBfdUoMX1b3jGh-6" value="do / doActivity" style="html=1;align=left;spacing=0;spacingLeft=10;verticalAlign=middle;strokeColor=none;fillColor=none;whiteSpace=wrap;" vertex="1" parent="eo_KO0FBfdUoMX1b3jGh-1">
          <mxGeometry y="52" width="200" height="14" as="geometry" />
        </mxCell>
        <mxCell id="eo_KO0FBfdUoMX1b3jGh-7" value="exit / exitActivity" style="html=1;align=left;spacingLeft=10;spacing=0;verticalAlign=middle;strokeColor=none;fillColor=none;whiteSpace=wrap;" vertex="1" parent="eo_KO0FBfdUoMX1b3jGh-1">
          <mxGeometry y="66" width="200" height="14" as="geometry" />
        </mxCell>
        <mxCell id="eo_KO0FBfdUoMX1b3jGh-8" value="" style="html=1;align=left;spacing=0;spacingLeft=10;verticalAlign=middle;strokeColor=none;fillColor=none;whiteSpace=wrap;" vertex="1" parent="eo_KO0FBfdUoMX1b3jGh-1">
          <mxGeometry y="80" width="200" height="20" as="geometry" />
        </mxCell>
        <mxCell id="eo_KO0FBfdUoMX1b3jGh-9" value="" style="fontStyle=1;align=center;verticalAlign=middle;childLayout=stackLayout;horizontal=1;horizontalStack=0;resizeParent=1;resizeParentMax=0;resizeLast=0;marginBottom=0;rounded=1;absoluteArcSize=1;arcSize=22;" vertex="1" parent="1">
          <mxGeometry x="590" y="100" width="200" height="100" as="geometry" />
        </mxCell>
        <mxCell id="eo_KO0FBfdUoMX1b3jGh-10" value="State2" style="html=1;align=center;spacing=0;verticalAlign=middle;strokeColor=none;fillColor=none;whiteSpace=wrap;" vertex="1" parent="eo_KO0FBfdUoMX1b3jGh-9">
          <mxGeometry width="200" height="20" as="geometry" />
        </mxCell>
        <mxCell id="eo_KO0FBfdUoMX1b3jGh-11" value="" style="line;strokeWidth=0.25;fillColor=none;align=left;verticalAlign=middle;spacingTop=-1;spacingLeft=3;spacingRight=3;rotatable=0;labelPosition=right;points=[];portConstraint=eastwest;" vertex="1" parent="eo_KO0FBfdUoMX1b3jGh-9">
          <mxGeometry y="20" width="200" height="8" as="geometry" />
        </mxCell>
        <mxCell id="eo_KO0FBfdUoMX1b3jGh-12" value="" style="html=1;align=left;spacing=0;spacingLeft=10;verticalAlign=middle;strokeColor=none;fillColor=none;whiteSpace=wrap;" vertex="1" parent="eo_KO0FBfdUoMX1b3jGh-9">
          <mxGeometry y="28" width="200" height="10" as="geometry" />
        </mxCell>
        <mxCell id="eo_KO0FBfdUoMX1b3jGh-13" value="entry / entryActivity" style="html=1;align=left;spacing=0;spacingLeft=10;verticalAlign=middle;strokeColor=none;fillColor=none;whiteSpace=wrap;" vertex="1" parent="eo_KO0FBfdUoMX1b3jGh-9">
          <mxGeometry y="38" width="200" height="14" as="geometry" />
        </mxCell>
        <mxCell id="eo_KO0FBfdUoMX1b3jGh-14" value="do / doActivity" style="html=1;align=left;spacing=0;spacingLeft=10;verticalAlign=middle;strokeColor=none;fillColor=none;whiteSpace=wrap;" vertex="1" parent="eo_KO0FBfdUoMX1b3jGh-9">
          <mxGeometry y="52" width="200" height="14" as="geometry" />
        </mxCell>
        <mxCell id="eo_KO0FBfdUoMX1b3jGh-15" value="exit / exitActivity" style="html=1;align=left;spacingLeft=10;spacing=0;verticalAlign=middle;strokeColor=none;fillColor=none;whiteSpace=wrap;" vertex="1" parent="eo_KO0FBfdUoMX1b3jGh-9">
          <mxGeometry y="66" width="200" height="14" as="geometry" />
        </mxCell>
        <mxCell id="eo_KO0FBfdUoMX1b3jGh-16" value="" style="html=1;align=left;spacing=0;spacingLeft=10;verticalAlign=middle;strokeColor=none;fillColor=none;whiteSpace=wrap;" vertex="1" parent="eo_KO0FBfdUoMX1b3jGh-9">
          <mxGeometry y="80" width="200" height="20" as="geometry" />
        </mxCell>
        <mxCell id="eo_KO0FBfdUoMX1b3jGh-17" value="" style="fontStyle=1;align=center;verticalAlign=middle;childLayout=stackLayout;horizontal=1;horizontalStack=0;resizeParent=1;resizeParentMax=0;resizeLast=0;marginBottom=0;rounded=1;absoluteArcSize=1;arcSize=22;" vertex="1" parent="1">
          <mxGeometry x="850" y="100" width="200" height="100" as="geometry" />
        </mxCell>
        <mxCell id="eo_KO0FBfdUoMX1b3jGh-18" value="State2" style="html=1;align=center;spacing=0;verticalAlign=middle;strokeColor=none;fillColor=none;whiteSpace=wrap;" vertex="1" parent="eo_KO0FBfdUoMX1b3jGh-17">
          <mxGeometry width="200" height="20" as="geometry" />
        </mxCell>
        <mxCell id="eo_KO0FBfdUoMX1b3jGh-19" value="" style="line;strokeWidth=0.25;fillColor=none;align=left;verticalAlign=middle;spacingTop=-1;spacingLeft=3;spacingRight=3;rotatable=0;labelPosition=right;points=[];portConstraint=eastwest;" vertex="1" parent="eo_KO0FBfdUoMX1b3jGh-17">
          <mxGeometry y="20" width="200" height="8" as="geometry" />
        </mxCell>
        <mxCell id="eo_KO0FBfdUoMX1b3jGh-20" value="" style="html=1;align=left;spacing=0;spacingLeft=10;verticalAlign=middle;strokeColor=none;fillColor=none;whiteSpace=wrap;" vertex="1" parent="eo_KO0FBfdUoMX1b3jGh-17">
          <mxGeometry y="28" width="200" height="10" as="geometry" />
        </mxCell>
        <mxCell id="eo_KO0FBfdUoMX1b3jGh-21" value="entry / entryActivity" style="html=1;align=left;spacing=0;spacingLeft=10;verticalAlign=middle;strokeColor=none;fillColor=none;whiteSpace=wrap;" vertex="1" parent="eo_KO0FBfdUoMX1b3jGh-17">
          <mxGeometry y="38" width="200" height="14" as="geometry" />
        </mxCell>
        <mxCell id="eo_KO0FBfdUoMX1b3jGh-22" value="do / doActivity" style="html=1;align=left;spacing=0;spacingLeft=10;verticalAlign=middle;strokeColor=none;fillColor=none;whiteSpace=wrap;" vertex="1" parent="eo_KO0FBfdUoMX1b3jGh-17">
          <mxGeometry y="52" width="200" height="14" as="geometry" />
        </mxCell>
        <mxCell id="eo_KO0FBfdUoMX1b3jGh-23" value="exit / exitActivity" style="html=1;align=left;spacingLeft=10;spacing=0;verticalAlign=middle;strokeColor=none;fillColor=none;whiteSpace=wrap;" vertex="1" parent="eo_KO0FBfdUoMX1b3jGh-17">
          <mxGeometry y="66" width="200" height="14" as="geometry" />
        </mxCell>
        <mxCell id="eo_KO0FBfdUoMX1b3jGh-24" value="" style="html=1;align=left;spacing=0;spacingLeft=10;verticalAlign=middle;strokeColor=none;fillColor=none;whiteSpace=wrap;" vertex="1" parent="eo_KO0FBfdUoMX1b3jGh-17">
          <mxGeometry y="80" width="200" height="20" as="geometry" />
        </mxCell>
      </root>
    </mxGraphModel>
  </diagram>
</mxfile>
